<?xml version="1.0" encoding="utf-8"?>
<!-- Generator: Adobe Illustrator 27.5.0, SVG Export Plug-In . SVG Version: 6.00 Build 0)  -->
<svg version="1.1" id="Layer_1" xmlns="http://www.w3.org/2000/svg" xmlns:xlink="http://www.w3.org/1999/xlink" x="0px" y="0px"
	 viewBox="0 0 154 36" style="enable-background:new 0 0 154 36;" xml:space="preserve">
<style type="text/css">
	.st0{fill-rule:evenodd;clip-rule:evenodd;fill:#9E1B1F;}
	.st1{opacity:0.6;}
	
		.st2{clip-path:url(#SVGID_00000108306537870991982970000010713092654839973510_);fill-rule:evenodd;clip-rule:evenodd;fill:url(#SVGID_00000147913462028453764950000010353006879247270789_);}
	.st3{fill-rule:evenodd;clip-rule:evenodd;fill:#009093;}
	
		.st4{clip-path:url(#SVGID_00000152982568396013362840000000348019093960322711_);fill-rule:evenodd;clip-rule:evenodd;fill:url(#SVGID_00000000915227243345132590000007066969880063826612_);}
	.st5{fill-rule:evenodd;clip-rule:evenodd;fill:#F2C217;}
	
		.st6{clip-path:url(#SVGID_00000147177675647944535350000000033817266732128897_);fill-rule:evenodd;clip-rule:evenodd;fill:url(#SVGID_00000113342320546934576990000016404972477547956147_);}
	.st7{fill-rule:evenodd;clip-rule:evenodd;fill:#04A5CF;}
	
		.st8{clip-path:url(#SVGID_00000007410223049006144630000013338004767570045575_);fill-rule:evenodd;clip-rule:evenodd;fill:url(#SVGID_00000038405559819110129570000004145702084570524317_);}
	.st9{fill:#7F7F7F;}
</style>
<g>
	<path class="st0" d="M34.2,24.8c0.6-1,0.4-2.4-0.7-3c-1-0.6-2.4-0.4-3,0.7c-0.6,1-0.4,2.4,0.7,3C32.2,26.1,33.5,25.8,34.2,24.8z"/>
	<path class="st0" d="M34,14.5l-10.4,4.8c0,0-0.9,0.4-1.1,1.1c-0.2,0.6,0.2,1.3,0.4,1.7L30.8,35c0.2,0.3,0.6,0.7,1.2,0.3
		c0.6-0.3,0.4-0.9,0.2-1.3l-5.3-10.5c-0.8-1.6-0.7-2.2,0.9-3.1c2.8-1.7,4.2-2.6,7-4.3c0.2-0.1,0.6-0.5,0.3-1.2
		C34.7,14.2,34,14.5,34,14.5z"/>
	<g class="st1">
		<g>
			<defs>
				<path id="SVGID_1_" d="M34,14.5l-10.4,4.8c0,0-0.9,0.4-1.1,1.1c-0.2,0.6,0.2,1.3,0.4,1.7L30.8,35c0.2,0.3,0.6,0.7,1.2,0.3
					c0.6-0.3,0.4-0.9,0.2-1.3l-5.3-10.5c-0.8-1.6-0.7-2.2,0.9-3.1c2.8-1.7,4.2-2.6,7-4.3c0.2-0.1,0.6-0.5,0.3-1.2
					C34.7,14.2,34,14.5,34,14.5z"/>
			</defs>
			<clipPath id="SVGID_00000163773861573471206640000010480854827486622396_">
				<use xlink:href="#SVGID_1_"  style="overflow:visible;"/>
			</clipPath>
			
				<linearGradient id="SVGID_00000038374955755136402130000016916454633654591677_" gradientUnits="userSpaceOnUse" x1="-417.0531" y1="860.5827" x2="-421.3603" y2="857.6809" gradientTransform="matrix(0.539 -0.8423 0.8423 0.539 -469.4073 -797.0555)">
				<stop  offset="0" style="stop-color:#000000;stop-opacity:0"/>
				<stop  offset="1" style="stop-color:#000000"/>
			</linearGradient>
			
				<path style="clip-path:url(#SVGID_00000163773861573471206640000010480854827486622396_);fill-rule:evenodd;clip-rule:evenodd;fill:url(#SVGID_00000038374955755136402130000016916454633654591677_);" d="
				M26.5,22.5c-0.5-1.2,5.7-2.6,5.7-2.6l-1.1-1.6L30.8,16c0,0-3.4,0.1-3.5,1.6C24.4,18.8,26.4,22.3,26.5,22.5z"/>
		</g>
	</g>
	<path class="st3" d="M4.9,16c0-1.2,1-2.2,2.2-2.2s2.2,1,2.2,2.2s-1,2.2-2.2,2.2S4.9,17.2,4.9,16z"/>
	<path class="st3" d="M10.6,7.5l6.2,9.6c0,0,0.5,0.8,0.3,1.5c-0.2,0.6-0.9,1-1.2,1.2L2.3,26.5c-0.3,0.1-0.9,0.2-1.2-0.4
		s0.2-1,0.5-1.2l10.1-6c1.6-0.9,1.8-1.5,1-3.1c-1.4-3-2.1-4.4-3.6-7.4C9,8.2,8.9,7.7,9.5,7.3C10.1,6.9,10.6,7.5,10.6,7.5z"/>
	<g class="st1">
		<g>
			<defs>
				<path id="SVGID_00000155104732999133431480000012085020735818002563_" d="M10.6,7.5l6.2,9.6c0,0,0.5,0.8,0.3,1.5
					c-0.2,0.6-0.9,1-1.2,1.2L2.3,26.5c-0.3,0.1-0.9,0.2-1.2-0.4s0.2-1,0.5-1.2l10.1-6c1.6-0.9,1.8-1.5,1-3.1c-1.4-3-2.1-4.4-3.6-7.4
					C9,8.2,8.9,7.7,9.5,7.3C10.1,6.9,10.6,7.5,10.6,7.5z"/>
			</defs>
			<clipPath id="SVGID_00000121243645057585701220000011685399874145004735_">
				<use xlink:href="#SVGID_00000155104732999133431480000012085020735818002563_"  style="overflow:visible;"/>
			</clipPath>
			
				<linearGradient id="SVGID_00000022527621296849379280000003551952323629046182_" gradientUnits="userSpaceOnUse" x1="-828.8105" y1="-231.7968" x2="-833.1176" y2="-234.6984" gradientTransform="matrix(0 -1 -1 0 -220.3247 -816.5137)">
				<stop  offset="0" style="stop-color:#000000;stop-opacity:0"/>
				<stop  offset="1" style="stop-color:#000000"/>
			</linearGradient>
			
				<path style="clip-path:url(#SVGID_00000121243645057585701220000011685399874145004735_);fill-rule:evenodd;clip-rule:evenodd;fill:url(#SVGID_00000022527621296849379280000003551952323629046182_);" d="
				M14.6,13.7c0.7-1.3-2.1-3.3-2.1-3.3L11,12.2L9.2,13c0,0,4.5,4.5,3.4,5.3C12.8,18.1,16.3,16.3,14.6,13.7z"/>
		</g>
	</g>
	<path class="st5" d="M14.7,33.9c1,0.6,2.4,0.3,3-0.7s0.3-2.4-0.7-3s-2.4-0.3-3,0.7C13.4,31.9,13.7,33.3,14.7,33.9z"/>
	<path class="st5" d="M24.9,33.6l-4.8-10.4c0,0-0.4-0.9-1.1-1.1c-0.6-0.2-1.3,0.2-1.7,0.4l-12.8,8c-0.3,0.2-0.7,0.6-0.3,1.2
		c0.3,0.6,0.9,0.3,1.3,0.2L16,26.6c1.6-0.8,2.2-0.7,3.2,0.8c1.7,2.8,2.6,4.2,4.3,7c0.1,0.2,0.5,0.6,1.2,0.3
		C25.2,34.4,24.9,33.7,24.9,33.6z"/>
	<g class="st1">
		<g>
			<defs>
				<path id="SVGID_00000168823089508141692280000008821720249504241537_" d="M24.9,33.6l-4.8-10.4c0,0-0.4-0.9-1.1-1.1
					c-0.6-0.2-1.3,0.2-1.7,0.4l-12.8,8c-0.3,0.2-0.7,0.6-0.3,1.2c0.3,0.6,0.9,0.3,1.3,0.2L16,26.6c1.6-0.8,2.2-0.7,3.2,0.8
					c1.7,2.8,2.6,4.2,4.3,7c0.1,0.2,0.5,0.6,1.2,0.3C25.2,34.4,24.9,33.7,24.9,33.6z"/>
			</defs>
			<clipPath id="SVGID_00000003088255796896368900000008402497778862229150_">
				<use xlink:href="#SVGID_00000168823089508141692280000008821720249504241537_"  style="overflow:visible;"/>
			</clipPath>
			
				<linearGradient id="SVGID_00000077310436407414693320000012692072418457006729_" gradientUnits="userSpaceOnUse" x1="70.0014" y1="383.9991" x2="65.6945" y2="381.0974" gradientTransform="matrix(0.8452 0.5345 -0.5345 0.8452 167.3862 -331.6167)">
				<stop  offset="0" style="stop-color:#000000;stop-opacity:0"/>
				<stop  offset="1" style="stop-color:#000000"/>
			</linearGradient>
			
				<path style="clip-path:url(#SVGID_00000003088255796896368900000008402497778862229150_);fill-rule:evenodd;clip-rule:evenodd;fill:url(#SVGID_00000077310436407414693320000012692072418457006729_);" d="
				M16.9,26.2c1.2-0.5,2.6,5.7,2.6,5.7l1.6-1.1l2.2-0.4c0,0-0.1-3.4-1.6-3.5C20.6,24.1,17.1,26.1,16.9,26.2z"/>
		</g>
	</g>
	<g class="st1">
		<g>
			<defs>
				<path id="SVGID_00000000902176689732890160000008635637306317650605_" d="M10.6,7.5l6.3,9.6c0,0,0.5,0.8,0.3,1.5
					c-0.2,0.6-0.9,1-1.2,1.2L2.4,26.5c-0.3,0.1-0.9,0.2-1.2-0.4s0.2-1,0.5-1.2l10.1-6.1c1.6-1,1.8-1.5,1-3.1c-1.5-3-2.2-4.4-3.6-7.4
					C9,8.2,8.9,7.7,9.5,7.3C10.1,6.9,10.6,7.5,10.6,7.5z"/>
			</defs>
			<clipPath id="SVGID_00000099650326955473597900000006112936158095121596_">
				<use xlink:href="#SVGID_00000000902176689732890160000008635637306317650605_"  style="overflow:visible;"/>
			</clipPath>
		</g>
	</g>
	<g>
		<path class="st7" d="M23.3,4.5c1.2,0,2.2,1,2.2,2.2s-1,2.2-2.2,2.2s-2.2-1-2.2-2.2S22.1,4.5,23.3,4.5z"/>
		<path class="st7" d="M31.8,10.2l-9.6,6.2c0,0-0.8,0.5-1.5,0.3c-0.6-0.2-1-0.9-1.2-1.2L12.8,1.9c-0.1-0.3-0.2-0.9,0.4-1.2
			c0.6-0.3,1,0.2,1.2,0.5l6,10.1c0.9,1.6,1.5,1.8,3.1,1c3-1.4,4.4-2.1,7.4-3.6c0.2-0.1,0.7-0.2,1.1,0.4
			C32.4,9.7,31.8,10.2,31.8,10.2z"/>
		<g class="st1">
			<g>
				<defs>
					<path id="SVGID_00000025405168730768713520000012167115855166773395_" d="M31.8,10.2l-9.6,6.2c0,0-0.8,0.5-1.5,0.3
						c-0.6-0.2-1-0.9-1.2-1.2L12.8,1.9c-0.1-0.3-0.2-0.9,0.4-1.2c0.6-0.3,1,0.2,1.2,0.5l6,10.1c0.9,1.6,1.5,1.8,3.1,1
						c3-1.4,4.4-2.1,7.4-3.6c0.2-0.1,0.7-0.2,1.1,0.4C32.4,9.7,31.8,10.2,31.8,10.2z"/>
				</defs>
				<clipPath id="SVGID_00000114771541787837029860000008708210643770551452_">
					<use xlink:href="#SVGID_00000025405168730768713520000012167115855166773395_"  style="overflow:visible;"/>
				</clipPath>
				
					<linearGradient id="SVGID_00000125582968448132562120000009309767787492392339_" gradientUnits="userSpaceOnUse" x1="27.0084" y1="26.8978" x2="22.7015" y2="23.9962" gradientTransform="matrix(1 0 0 -1 0 38)">
					<stop  offset="0" style="stop-color:#000000;stop-opacity:0"/>
					<stop  offset="1" style="stop-color:#000000"/>
				</linearGradient>
				
					<path style="clip-path:url(#SVGID_00000114771541787837029860000008708210643770551452_);fill-rule:evenodd;clip-rule:evenodd;fill:url(#SVGID_00000125582968448132562120000009309767787492392339_);" d="
					M25.6,14.2c1.3,0.7,3.3-2.1,3.3-2.1l-1.7-1.5l-0.8-1.8c0,0-4.5,4.5-5.3,3.4C21.2,12.4,23,15.9,25.6,14.2z"/>
			</g>
		</g>
	</g>
</g>
<path d="M50.8,13.3l6.4,10.3h-4.5l-4.5-7.4l-2.3,2.5v4.8h-3.8V6.2h3.8v7.4l0,0l2.6-3.2l3.6-4.3h4.6L50.8,13.3z M61.5,12.7L61.5,12.7
	l-0.1-1.4H58v12.4h3.6v-7.4c0-1.2,0.8-1.9,1.8-1.9c0.7,0,1.4,0.1,2.3,0.6l1.2-3.1c-0.9-0.6-1.6-0.8-2.6-0.8
	C63.2,11.1,62.1,11.8,61.5,12.7z M68,9.3h3.6V6.2H68V9.3z M68,23.6h3.6V11.2H68V23.6z M79.8,16c-1.9-0.2-2.5-0.5-2.5-1
	c0-0.3,0.4-0.8,1.4-0.8c0.7,0,2,0.1,3.4,1l1.6-2.6c-1.5-1.1-3.2-1.4-5-1.4c-2.5,0-4.7,1.3-4.7,4c0,2.9,2.5,3.4,5,3.6
	c1.3,0.1,1.5,0.6,1.5,1.1s-0.7,0.9-1.6,0.9c-1.3,0-2.7-0.2-3.9-1.4l-1.7,2.5c1.9,1.7,3.7,1.9,5.5,1.9c2.7,0,5.2-1.4,5.2-4
	C84,17,82.1,16.3,79.8,16z M92.4,11.1c-0.9,0-2.2,0.4-2.9,1h-0.1V5.5h-3.6v18.1h3.6v-7.3c0-1.2,0.8-1.9,1.9-1.9c1,0,1.7,0.6,1.7,1.9
	v7.3h3.5v-8C96.6,12.7,94.7,11.1,92.4,11.1z M109.5,15.3v8.3H106v-1.1h-0.1c-0.9,1-2.2,1.3-3,1.3c-2.4,0-4.1-1.1-4.1-3.8
	c0-2.1,1.6-3.8,4.5-3.8h2.8v-0.4c0-0.5-0.2-1.5-2.1-1.5c-1.1,0-2.1,0.2-2.9,1l-1.7-2.4c1.5-1.3,3.3-1.6,5-1.6
	C107.1,11.1,109.5,12.1,109.5,15.3z M105.9,18.7h-2.3c-1.3,0-1.5,0.5-1.5,0.9c0,0.3,0.2,1.1,1.7,1.1c1.1,0,2.1-0.5,2.1-1.7
	C105.9,19,105.9,18.7,105.9,18.7z M126.1,15c-0.3,1.4-0.6,3.1-0.9,4.5h-0.1l-1.2-4.5l-2.4-8.7h-1.8l-2.4,8.6l-1.1,4.7h-0.1l-1-4.7
	l-1.9-8.5h-2.4l4.4,17.4h1.9l2.4-8.9l1.1-4.3h0.1l1.2,4.6l2.3,8.6h1.9l4.4-17.4h-2.4L126.1,15z M141,16.5v1.6h-8v0.2
	c0,1.9,1.1,3.5,3.2,3.5c0.8,0,2-0.4,2.8-1.2l1.3,1.5c-1.2,1.1-2.7,1.6-4.2,1.6c-2.5,0-5.2-1.2-5.2-6.3c0-4.9,2.8-6.4,5.2-6.4
	C138.8,11.1,141,13.1,141,16.5z M138.9,16.4c-0.1-2.2-1.2-3.4-2.9-3.4s-2.8,1.2-2.9,3.4H138.9z M153,17.2c0,3.1-0.7,6.5-4.4,6.5
	c-1.2,0-2.5-0.3-3.4-1.5h-0.1v1.4h-2V5.5h2v7.1h0.1c1-1.1,2.2-1.5,3.4-1.5C152.1,11.1,153,14.2,153,17.2z M150.9,17.4
	c0-2-0.3-4.3-2.9-4.3c-2.5,0-2.8,2.4-2.8,4.3c0,1.8,0.3,4.5,2.8,4.5C150.6,21.9,150.9,19.3,150.9,17.4z"/>
<path class="st9" d="M42.8,29c0,0.1,0,0.2,0,0.3c0,0.5,0.2,0.9,0.9,0.9c0.5,0,0.9-0.3,1.1-0.7l0.5,0.3c-0.4,0.6-1,1-1.7,1
	c-0.9,0-1.4-0.6-1.4-1.4c0-0.1,0-0.3,0-0.4l0.3-1.2c0.2-0.9,0.7-1.6,1.8-1.6c0.7,0,1.3,0.4,1.4,1l-0.6,0.2c-0.1-0.3-0.4-0.7-0.9-0.7
	c-0.8,0-1.1,0.6-1.2,1.2L42.8,29z M47.6,27.9L47.6,27.9l0.1-0.4h-0.5l-0.6,3.3H47l0.4-1.9c0.1-0.5,0.5-0.8,0.9-0.8
	c0.1,0,0.3,0,0.4,0.1l0.3-0.5c-0.1-0.1-0.2-0.1-0.5-0.1C48.2,27.4,47.9,27.5,47.6,27.9z M52.6,28.3c0,0.5-0.4,1.1-1.9,1.1
	c-0.1,0-0.2,0-0.3,0c0,0.1,0,0.2,0,0.2c0,0.5,0.2,0.7,0.6,0.7c0.3,0,0.7-0.2,0.9-0.3l0.3,0.4c-0.3,0.3-0.8,0.4-1.2,0.4
	c-0.7,0-1.1-0.4-1.1-1.2c0-1,0.5-2.2,1.6-2.2C52.2,27.4,52.6,27.7,52.6,28.3z M52.1,28.3c0-0.3-0.2-0.4-0.6-0.4c-0.6,0-0.9,0.5-1,1
	c0.1,0,0.2,0,0.3,0C51.9,28.9,52.1,28.5,52.1,28.3z M56.4,27.4h0.5l-0.6,3.3h-0.5l0.1-0.4l0,0c-0.3,0.3-0.5,0.4-0.9,0.4
	c-0.7,0-1-0.5-1-1.1c0-0.9,0.5-2.2,1.5-2.2c0.3,0,0.7,0.1,0.8,0.4l0,0L56.4,27.4z M56.1,28.6c0-0.4-0.1-0.7-0.6-0.7
	c-0.8,0-1.1,1.1-1.1,1.7c0,0.3,0.1,0.7,0.6,0.7C55.8,30.3,56.1,29.2,56.1,28.6z M59.4,26.6h-0.5l-0.2,0.8h-0.4l-0.1,0.5h0.4l-0.4,2
	c-0.1,0.5,0.2,0.8,0.6,0.8h0.4l0.1-0.5H59c-0.3,0-0.3-0.2-0.2-0.4l0.4-1.9h0.5l0.1-0.5h-0.5L59.4,26.6z M63.6,28.3
	c0,0.5-0.4,1.1-1.9,1.1c-0.1,0-0.2,0-0.3,0c0,0.1,0,0.2,0,0.2c0,0.5,0.2,0.7,0.6,0.7c0.3,0,0.7-0.2,0.9-0.3l0.3,0.4
	c-0.3,0.3-0.8,0.4-1.2,0.4c-0.7,0-1.1-0.4-1.1-1.2c0-1,0.5-2.2,1.6-2.2C63.1,27.4,63.6,27.7,63.6,28.3z M63,28.3
	c0-0.3-0.2-0.4-0.6-0.4c-0.6,0-0.9,0.5-1,1c0.1,0,0.2,0,0.3,0C62.9,28.9,63,28.5,63,28.3z M73,27.8c0.1-0.6,0.5-1.2,1.2-1.2
	c0.5,0,0.8,0.3,0.9,0.7l0.6-0.2c-0.2-0.6-0.7-1-1.4-1c-1.1,0-1.6,0.8-1.8,1.6L72.2,29c0,0.1,0,0.3,0,0.4c0,0.8,0.5,1.4,1.4,1.4
	c0.7,0,1.4-0.3,1.7-1l-0.5-0.3c-0.2,0.4-0.7,0.7-1.1,0.7c-0.7,0-0.9-0.4-0.9-0.9c0-0.1,0-0.2,0-0.3L73,27.8z M79.3,28.6
	c0,1-0.4,2.2-1.6,2.2c-0.8,0-1.2-0.4-1.2-1.1c0-1.2,0.5-2.2,1.6-2.2C78.8,27.4,79.3,27.9,79.3,28.6z M78.8,28.6
	c0-0.5-0.3-0.7-0.7-0.7c-0.8,0-1,1-1,1.7c0,0.3,0.1,0.7,0.7,0.7C78.5,30.2,78.8,29.3,78.8,28.6z M84.7,27.4c-0.4,0-0.8,0.1-1.1,0.5
	l0,0c-0.2-0.3-0.4-0.5-0.9-0.5c-0.3,0-0.7,0.1-1,0.4l0,0l0.1-0.4h-0.5l-0.6,3.3h0.5l0.4-2c0.1-0.5,0.5-0.8,0.9-0.8
	c0.5,0,0.7,0.3,0.6,0.8l-0.4,2h0.5l0.4-2c0.1-0.5,0.5-0.8,1-0.8s0.6,0.3,0.5,0.8l-0.4,2h0.5l0.4-2.1C85.7,27.9,85.3,27.4,84.7,27.4z
	 M91.1,27.4c-0.4,0-0.8,0.1-1.1,0.5l0,0c-0.2-0.3-0.4-0.5-0.9-0.5c-0.3,0-0.7,0.1-1,0.4l0,0l0.1-0.4h-0.5L87,30.7h0.5l0.4-2
	c0.1-0.5,0.5-0.8,0.9-0.8c0.5,0,0.7,0.3,0.6,0.8l-0.4,2h0.5l0.4-2c0.1-0.5,0.5-0.8,1-0.8s0.6,0.3,0.5,0.8l-0.4,2h0.5l0.4-2.1
	C92.1,27.9,91.7,27.4,91.1,27.4z M95.6,29.4c-0.1,0.5-0.5,0.8-0.9,0.8c-0.6,0-0.7-0.3-0.6-0.8l0.4-2H94l-0.4,2.2
	c-0.1,0.7,0.2,1.1,0.9,1.1c0.3,0,0.7-0.1,1-0.4l0,0l-0.1,0.4h0.5l0.6-3.3H96L95.6,29.4z M99.8,27.4c-0.3,0-0.7,0.1-1,0.4l0,0
	l0.1-0.4h-0.5l-0.6,3.3h0.5l0.4-2c0.1-0.5,0.5-0.8,0.9-0.8c0.6,0,0.6,0.4,0.5,0.8l-0.4,2h0.5l0.4-2.2
	C100.8,27.8,100.4,27.4,99.8,27.4z M102,30.7h0.5l0.6-3.3h-0.5L102,30.7z M102.8,26.6h0.5l0.1-0.5h-0.5L102.8,26.6z M104.4,29.5
	c0,0.7,0.4,1.2,1.1,1.2c0.4,0,0.9-0.2,1.2-0.4l-0.3-0.4c-0.2,0.1-0.5,0.3-0.8,0.3c-0.5,0-0.7-0.3-0.7-0.8c0-0.7,0.3-1.5,1.1-1.5
	c0.3,0,0.5,0.1,0.7,0.3l0.4-0.4c-0.2-0.3-0.6-0.5-1-0.5C105,27.4,104.4,28.4,104.4,29.5z M110.6,27.4h0.5l-0.6,3.3H110l0.1-0.4l0,0
	c-0.3,0.3-0.5,0.4-0.9,0.4c-0.7,0-1-0.5-1-1.1c0-0.9,0.5-2.2,1.5-2.2c0.3,0,0.7,0.1,0.8,0.4l0,0L110.6,27.4z M110.4,28.6
	c0-0.4-0.1-0.7-0.6-0.7c-0.8,0-1.1,1.1-1.1,1.7c0,0.3,0.1,0.7,0.6,0.7C110.1,30.3,110.4,29.2,110.4,28.6z M113.7,26.6h-0.5l-0.2,0.8
	h-0.4l-0.1,0.5h0.4l-0.4,2c-0.1,0.5,0.2,0.8,0.6,0.8h0.4l0.1-0.5h-0.3c-0.3,0-0.3-0.2-0.2-0.4l0.4-1.9h0.5l0.1-0.5h-0.5L113.7,26.6z
	 M117.8,28.3c0,0.5-0.4,1.1-1.9,1.1c-0.1,0-0.2,0-0.3,0c0,0.1,0,0.2,0,0.2c0,0.5,0.2,0.7,0.6,0.7c0.3,0,0.7-0.2,0.9-0.3l0.3,0.4
	c-0.3,0.3-0.8,0.4-1.2,0.4c-0.7,0-1.1-0.4-1.1-1.2c0-1,0.5-2.2,1.6-2.2C117.4,27.4,117.8,27.7,117.8,28.3z M117.3,28.3
	c0-0.3-0.2-0.4-0.6-0.4c-0.6,0-0.9,0.5-1,1c0.1,0,0.2,0,0.3,0C117.1,28.9,117.3,28.5,117.3,28.3z M127.2,27.8
	c0.1-0.6,0.5-1.2,1.2-1.2c0.5,0,0.8,0.3,0.9,0.7l0.6-0.2c-0.2-0.6-0.7-1-1.4-1c-1.1,0-1.6,0.8-1.8,1.6l-0.2,1.2c0,0.1,0,0.3,0,0.4
	c0,0.8,0.5,1.4,1.4,1.4c0.7,0,1.4-0.3,1.7-1l-0.5-0.3c-0.2,0.4-0.7,0.7-1.1,0.7c-0.7,0-0.9-0.4-0.9-0.9c0-0.1,0-0.2,0-0.3
	L127.2,27.8z M133.5,28.6c0,1-0.4,2.2-1.6,2.2c-0.8,0-1.2-0.4-1.2-1.1c0-1.2,0.5-2.2,1.6-2.2C133.1,27.4,133.5,27.9,133.5,28.6z
	 M133,28.6c0-0.5-0.3-0.7-0.7-0.7c-0.8,0-1,1-1,1.7c0,0.3,0.1,0.7,0.7,0.7C132.7,30.2,133,29.3,133,28.6z M136.9,27.4
	c-0.3,0-0.7,0.1-1,0.4l0,0l0.1-0.4h-0.5l-0.6,3.3h0.5l0.4-2c0.1-0.5,0.5-0.8,0.9-0.8c0.6,0,0.6,0.4,0.5,0.8l-0.4,2h0.5l0.4-2.2
	C137.9,27.8,137.5,27.4,136.9,27.4z M141.2,27.4c-0.3,0-0.7,0.1-1,0.4l0,0l0.1-0.4h-0.5l-0.6,3.3h0.5l0.4-2c0.1-0.5,0.5-0.8,0.9-0.8
	c0.6,0,0.6,0.4,0.5,0.8l-0.4,2h0.5l0.4-2.2C142.2,27.8,141.8,27.4,141.2,27.4z M146.3,28.3c0,0.5-0.4,1.1-1.9,1.1
	c-0.1,0-0.2,0-0.3,0c0,0.1,0,0.2,0,0.2c0,0.5,0.2,0.7,0.6,0.7c0.3,0,0.7-0.2,0.9-0.3l0.3,0.4c-0.3,0.3-0.8,0.4-1.2,0.4
	c-0.7,0-1.1-0.4-1.1-1.2c0-1,0.5-2.2,1.6-2.2C145.9,27.4,146.3,27.7,146.3,28.3z M145.7,28.3c0-0.3-0.2-0.4-0.6-0.4
	c-0.6,0-0.9,0.5-1,1c0.1,0,0.2,0,0.3,0C145.6,28.9,145.7,28.5,145.7,28.3z M147.5,29.5c0,0.7,0.4,1.2,1.1,1.2c0.4,0,0.9-0.2,1.2-0.4
	l-0.3-0.4c-0.2,0.1-0.5,0.3-0.8,0.3c-0.5,0-0.7-0.3-0.7-0.8c0-0.7,0.3-1.5,1.1-1.5c0.3,0,0.5,0.1,0.7,0.3l0.4-0.4
	c-0.2-0.3-0.6-0.5-1-0.5C148.1,27.4,147.5,28.4,147.5,29.5z M152.3,27.9h0.5l0.1-0.5h-0.5l0.2-0.8H152l-0.2,0.8h-0.4l-0.1,0.5h0.4
	l-0.4,2c-0.1,0.5,0.2,0.8,0.6,0.8h0.4l0.1-0.5h-0.3c-0.3,0-0.3-0.2-0.2-0.4L152.3,27.9z M67.9,28.1c-0.4,0-0.7,0.3-0.7,0.7
	s0.3,0.7,0.7,0.7s0.7-0.3,0.7-0.7S68.3,28.1,67.9,28.1z M122.2,28.1c-0.4,0-0.7,0.3-0.7,0.7s0.3,0.7,0.7,0.7s0.7-0.3,0.7-0.7
	S122.6,28.1,122.2,28.1z"/>
</svg>
